<?xml version="1.0" standalone="no"?>
<!DOCTYPE svg PUBLIC "-//W3C//DTD SVG 20010904//EN"
 "http://www.w3.org/TR/2001/REC-SVG-20010904/DTD/svg10.dtd">
<svg version="1.0" xmlns="http://www.w3.org/2000/svg"
 width="181.000000pt" height="40.000000pt" viewBox="0 0 181.000000 40.000000"
 preserveAspectRatio="xMidYMid meet">

<g transform="translate(0.000000,40.000000) scale(0.100000,-0.100000)"
fill="##FF7823" stroke="none">
<path d="M143 390 c-79 -18 -143 -102 -143 -185 0 -119 77 -195 198 -195 77 0
132 35 167 104 22 45 25 63 25 168 l0 118 -107 -1 c-60 -1 -123 -5 -140 -9z
m167 -60 c0 -18 -7 -20 -65 -20 l-65 0 0 -44 0 -45 53 -3 c38 -2 52 -7 52 -18
0 -11 -14 -16 -52 -18 l-52 -3 -3 -62 c-2 -49 -6 -62 -20 -65 -17 -3 -18 9
-18 147 l0 151 85 0 c78 0 85 -2 85 -20z"/>
<path d="M1292 378 c-16 -16 -15 -53 2 -67 7 -6 25 -10 40 -9 19 2 26 8 26 23
-1 18 -1 19 -11 3 -20 -36 -67 -8 -54 33 6 17 12 20 37 15 18 -3 27 -2 23 4
-9 14 -49 12 -63 -2z"/>
<path d="M1401 343 c1 -27 3 -40 6 -30 5 21 31 23 39 2 4 -8 10 -15 15 -15 6
0 6 8 0 18 -7 13 -7 22 1 30 18 18 1 42 -32 42 -29 0 -30 -1 -29 -47z m47 20
c-2 -10 -10 -18 -18 -18 -8 0 -16 8 -18 18 -2 12 3 17 18 17 15 0 20 -5 18
-17z"/>
<path d="M1500 371 c0 -42 19 -71 45 -71 26 0 45 29 45 71 0 35 -19 20 -22
-18 -2 -30 -7 -38 -23 -38 -16 0 -21 8 -23 38 -3 38 -22 53 -22 18z"/>
<path d="M1631 343 c1 -26 3 -40 6 -31 2 9 14 18 26 20 16 2 22 10 22 28 0 20
-6 26 -27 28 -27 3 -28 2 -27 -45z m44 17 c0 -8 -8 -16 -17 -18 -13 -2 -18 3
-18 18 0 15 5 20 18 18 9 -2 17 -10 17 -18z"/>
<path d="M1730 374 c-10 -11 -11 -23 -4 -42 17 -48 84 -38 84 12 0 43 -53 63
-80 30z m65 -14 c7 -23 -10 -50 -31 -50 -20 0 -34 31 -23 52 13 24 46 23 54
-2z"/>
<path d="M527 336 c-20 -8 -43 -19 -51 -25 -22 -19 -46 -76 -46 -111 0 -42 35
-102 71 -124 56 -33 169 -14 169 29 0 18 -8 18 -40 0 -37 -21 -93 -18 -123 5
-53 42 -53 138 0 180 31 24 100 27 129 5 24 -19 34 -19 34 0 0 37 -86 61 -143
41z"/>
<path d="M726 235 c-29 -22 -11 -36 27 -20 40 16 80 2 85 -30 2 -18 -2 -20
-43 -17 -54 5 -95 -17 -95 -51 1 -50 51 -75 105 -52 19 7 35 10 35 4 0 -5 7
-9 15 -9 12 0 15 15 15 79 0 71 -2 82 -22 95 -28 20 -97 20 -122 1z m114 -102
c10 -9 -19 -39 -48 -47 -52 -15 -89 34 -39 53 20 8 75 4 87 -6z"/>
<path d="M930 155 c0 -78 3 -95 15 -95 12 0 15 14 15 63 0 69 17 97 57 97 32
0 42 -20 45 -90 2 -50 7 -65 18 -65 11 0 16 15 18 65 4 74 13 90 53 90 37 0
49 -24 49 -99 0 -48 3 -61 15 -61 22 0 21 137 -1 168 -19 27 -78 30 -106 5
-17 -15 -19 -15 -36 0 -22 20 -72 22 -91 5 -11 -10 -14 -10 -18 0 -3 6 -11 12
-19 12 -11 0 -14 -20 -14 -95z"/>
<path d="M1304 236 c-26 -19 -12 -31 23 -19 29 10 82 -1 85 -18 5 -31 2 -33
-49 -30 -41 2 -56 -2 -72 -18 -26 -26 -27 -53 -2 -75 23 -21 85 -24 108 -4 13
10 17 10 20 1 3 -7 11 -13 19 -13 11 0 14 16 14 69 0 90 -22 121 -84 121 -23
0 -51 -6 -62 -14z m109 -103 c23 -13 -30 -53 -71 -53 -41 0 -52 53 -14 63 17
5 71 -2 85 -10z"/>
<path d="M1500 155 c0 -73 3 -95 14 -95 9 0 15 20 20 62 7 68 26 98 63 98 14
0 23 6 23 15 0 10 -10 15 -30 15 -18 0 -33 -6 -36 -15 -4 -8 -10 -15 -15 -15
-5 0 -9 7 -9 15 0 8 -7 15 -15 15 -12 0 -15 -17 -15 -95z"/>
<path d="M1665 237 c-30 -23 -10 -38 28 -22 40 17 80 2 85 -31 3 -19 -1 -20
-51 -16 -41 3 -57 0 -70 -13 -21 -20 -22 -68 -2 -85 18 -15 76 -16 104 -1 14
8 21 8 21 1 0 -5 7 -10 15 -10 12 0 15 15 15 75 0 62 -4 79 -20 95 -24 24 -96
27 -125 7z m114 -103 c10 -9 -12 -35 -36 -45 -37 -14 -73 -4 -73 21 0 27 29
40 70 33 19 -3 37 -7 39 -9z"/>
</g>
</svg>
